# xmcd
#
# Track frame offsets: 
#        150
#        12489
#        24622
#        34260
#        46245
#        56539
#        66788
#        77686
#        89903
#        102592
#        112670
#        123418
#        137313
#        147763
#        157788
#        167586
#        178981
#        188727
#        198505
#        210735
#
# Disc length: 2945 seconds
#
# Revision: 0
# Processed by: cddbd v1.5.2PL0 Copyright (c) Steve Scherf et al.
# Submitted via: ExactAudioCopyFreeDBPlugin 1.0
#
DISCID=120b7f14
DTITLE=Various Artist - The Very Best of Vee-Jay Rhythm and Blues [Coll
DTITLE=ectables box set]
DYEAR=2002
DGENRE=Rhythm and Blues
TTITLE0=Jerry Butler and The Impressions - For Your Precious Love
TTITLE1=Bobby Parker - You Got What it Takes
TTITLE2=Gene Allison - You Can Make it If You Try
TTITLE3=Dillard Croom Jr. - It's You I Love
TTITLE4=Leonard Carbo - Pigtails and Bluejeans
TTITLE5=The Capers - High School Diploma
TTITLE6=Dee Clark - Nobody But You
TTITLE7=Billy "The Kid" Emerson - Do the Chicken
TTITLE8=Lee Diamond - Hatti Malatti
TTITLE9=Hank Ballard and the Midnighters - Twist
TTITLE10=Wade Flemons - Here I Stand
TTITLE11=Kip Anderson - Home Fires Are Brighter
TTITLE12=The Upsetters - Wake Up
TTITLE13=Priscilla Bowman and The Spaniels - Rockin' Good Way
TTITLE14=The Prodigals - Marsha
TTITLE15=Donnie Elbert - Will You Ever Be Mine
TTITLE16=Dee Clark - Just Keep it Up
TTITLE17=Priscilla Bowman - Promises Promises
TTITLE18=Gene Allison - Have Faith
TTITLE19=Dee Clark - Hey Little Girl
EXTD=
EXTT0=
EXTT1=
EXTT2=
EXTT3=
EXTT4=
EXTT5=
EXTT6=
EXTT7=
EXTT8=
EXTT9=
EXTT10=
EXTT11=
EXTT12=
EXTT13=
EXTT14=
EXTT15=
EXTT16=
EXTT17=
EXTT18=
EXTT19=
PLAYORDER=
